<svg xmlns="http://www.w3.org/2000/svg" width="241" height="54" viewBox="0 0 241 54">
  <defs>
    <style>
      .cls-1 {
        fill: #fff;
        fill-rule: evenodd;
      }
    </style>
  </defs>
  <path id="Logo.svg" class="cls-1" d="M197.919,112.4l28.619-.252-20.555-35.19-16.792,29.93-4.52.04,19.305-33.567-3.229-5.527L175,112.6l17.439-.153L206.08,88.136l10.81,18.508-16.649.147Zm44.757,5.589L211.367,64.225l0.37-.219,31.31,53.763Zm2.808-33.178V84.759a9.528,9.528,0,0,1,19.055-.052v0.052A9.528,9.528,0,0,1,245.484,84.811Zm14.051,0V84.759a4.672,4.672,0,0,0-4.549-4.912,4.582,4.582,0,0,0-4.473,4.859v0.052a4.667,4.667,0,0,0,4.524,4.912A4.586,4.586,0,0,0,259.535,84.811Zm10.089-9.147H274.2l7.278,9.615V75.664h4.852V93.854h-4.3l-7.556-9.979v9.979h-4.852V75.664Zm26.691,4.418h-5.307V75.664h15.517v4.418h-5.307V93.854h-4.9V80.081Zm14.99-4.418h4.929V93.854h-4.929V75.664Zm10.086,9.147V84.759a9.216,9.216,0,0,1,9.325-9.459,8.589,8.589,0,0,1,7.506,3.794l-3.69,2.936a4.7,4.7,0,0,0-3.866-2.131c-2.476,0-4.22,2.157-4.22,4.807v0.052c0,2.729,1.744,4.86,4.22,4.86a4.8,4.8,0,0,0,3.993-2.209l3.69,2.7a8.857,8.857,0,0,1-7.835,4.106A9.112,9.112,0,0,1,321.391,84.811Zm21.586-9.147h14.229v4.288H347.83v2.754h8.491v3.976H347.83v2.885h9.5v4.288H342.977V75.664Zm19.388,0h4.9V89.437h8.567v4.418h-13.47V75.664Zm18.1,0h4.9V89.437h8.568v4.418h-13.47V75.664Zm16.481,9.147V84.759A9.528,9.528,0,0,1,416,84.707v0.052A9.528,9.528,0,0,1,396.945,84.811Zm14.051,0V84.759a4.672,4.672,0,0,0-4.549-4.912,4.582,4.582,0,0,0-4.473,4.859v0.052a4.667,4.667,0,0,0,4.524,4.912A4.586,4.586,0,0,0,411,84.811ZM226.424,89.482V83.459l4.5,7.069h0.1l4.524-7.121V93.854h4.877V75.664h-5.181l-4.22,7.042-4.22-7.042h-5.181v5.574Zm20.07,14.225h0.678v6.061h-0.678v-6.061Zm5.875,0h0.636l3.786,4.857v-4.857h0.661v6.061h-0.541l-3.881-4.97v4.97h-0.661v-6.061Zm11.811,0.631h-2.018v-0.631h4.722v0.631h-2.018v5.43H264.18v-5.43Zm7.414-.631h4.345v0.623h-3.666V106.4h3.279v0.623h-3.279v2.121h3.708v0.625h-4.387v-6.061Zm9.191,0h2.585a2.357,2.357,0,0,1,1.708.606,1.684,1.684,0,0,1,.463,1.194v0.017a1.768,1.768,0,0,1-1.63,1.767l1.845,2.477h-0.833l-1.742-2.356h-1.717v2.356h-0.679v-6.061Zm2.524,3.091a1.336,1.336,0,0,0,1.545-1.247v-0.018a1.279,1.279,0,0,0-1.536-1.2h-1.854v2.46h1.845Zm7.123-3.091h0.636l3.786,4.857v-4.857h0.661v6.061h-0.541l-3.881-4.97v4.97h-0.661v-6.061Zm12.446-.044h0.635l2.739,6.105h-0.73l-0.7-1.6h-3.271l-0.713,1.6h-0.695Zm1.674,3.888-1.365-3.091-1.374,3.091h2.739Zm7.14-3.213h-2.018v-0.631H314.4v0.631h-2.018v5.43h-0.686v-5.43Zm7.475-.631h0.677v6.061h-0.677v-6.061Zm5.609,3.047v-0.017a3.066,3.066,0,1,1,6.13-.017v0.017A3.066,3.066,0,1,1,324.776,106.754Zm5.426,0v-0.017a2.4,2.4,0,0,0-2.37-2.5,2.372,2.372,0,0,0-2.352,2.485v0.017a2.4,2.4,0,0,0,2.37,2.5A2.372,2.372,0,0,0,330.2,106.754Zm5.577-3.047h0.636l3.786,4.857v-4.857h0.661v6.061h-0.541l-3.881-4.97v4.97h-0.661v-6.061Zm12.446-.044h0.636l2.738,6.105H350.87l-0.7-1.6H346.9l-0.713,1.6h-0.695Zm1.675,3.888-1.366-3.091-1.373,3.091H349.9Zm6.324-3.844H356.9v5.428h3.382v0.633h-4.061v-6.061Zm14.5,3.047v-0.017a3.03,3.03,0,0,1,3.013-3.135,3.143,3.143,0,0,1,2.24.806l-0.437.519a2.549,2.549,0,0,0-1.828-.692,2.359,2.359,0,0,0-2.285,2.485v0.017a2.334,2.334,0,0,0,2.379,2.52,2.818,2.818,0,0,0,1.734-.606v-1.508h-1.828v-0.614h2.48v2.416a3.625,3.625,0,0,1-2.413.926A2.959,2.959,0,0,1,370.725,106.754Zm10.436-3.047h2.585a2.357,2.357,0,0,1,1.708.606,1.681,1.681,0,0,1,.464,1.194v0.017a1.768,1.768,0,0,1-1.631,1.767l1.845,2.477H385.3l-1.742-2.356H381.84v2.356h-0.679v-6.061Zm2.524,3.091a1.336,1.336,0,0,0,1.546-1.247v-0.018a1.28,1.28,0,0,0-1.537-1.2H381.84v2.46h1.845Zm6.857-.044v-0.017a3.065,3.065,0,1,1,6.129-.017v0.017A3.065,3.065,0,1,1,390.542,106.754Zm5.425,0v-0.017a2.4,2.4,0,0,0-2.369-2.5,2.372,2.372,0,0,0-2.353,2.485v0.017a2.4,2.4,0,0,0,2.37,2.5A2.372,2.372,0,0,0,395.967,106.754Zm5.484,0.476v-3.523h0.678v3.48a1.777,1.777,0,0,0,1.837,2.043,1.736,1.736,0,0,0,1.812-2v-3.523h0.678v3.472A2.507,2.507,0,1,1,401.451,107.23Zm10.05-3.523h2.25A1.961,1.961,0,0,1,416,105.629v0.017a2.078,2.078,0,0,1-2.361,1.983H412.18v2.139H411.5v-6.061Zm2.164,3.3a1.429,1.429,0,0,0,1.648-1.334v-0.016a1.363,1.363,0,0,0-1.614-1.317H412.18v2.667h1.485Z" transform="translate(-175 -64)"/>
</svg>
